<svg xmlns="http://www.w3.org/2000/svg" height="24" width="18" viewBox="0 0 384 512">
    <path fill = '#fff' d="m4.9 495.4v-432c0-29.824 24.176-54 54-54h270c29.824 0 54 24.176 54 54v432l-159.8-102.727c-17.788-11.437-40.613-11.437-58.401 0l-159.799 102.727z"/>
    <path d="M0 48C0 21.5 21.5 0 48 0l0 48V441.4l130.1-92.9c8.3-6 19.6-6 27.9 0L336 441.4V48H48V0H336c26.5 0 48 21.5 48 48V488c0 9-5 17.2-13 21.3s-17.6 3.4-24.9-1.8L192 397.5 37.9 507.5c-7.3 5.2-16.9 5.9-24.9 1.8S0 497 0 488V48z"/>
</svg>
